<svg xmlns="http://www.w3.org/2000/svg" width="70" height="70" viewBox="0 0 70 70" style="width: 100%; height: 100%;"><desc>Made with illustrio</desc>
  
<g class="base"><g fill="none" fill-rule="evenodd" stroke="none" class="main-fill">
    
    <path fill="none" d="M24.2811333,4.30593333 C20.5338,4.30593333 17.4561333,7.1638 17.1042667,10.8182667 L8.0122,10.8182667 L3.2816,0.4102 C3.122,0.0583333333 2.70666667,-0.0966 2.3548,0.0625333333 C2.00293333,0.2226 1.84706667,0.637466667 2.00713333,0.989333333 L6.47453333,10.8178 L1.64033333,10.8178 C0.707466667,10.8178 0.384066667,11.3222667 0.2884,11.5388 C0.192266667,11.7553333 0.0368666667,12.3344667 0.664533333,13.0242 L10.8014667,24.1752 C11.0142667,24.4094667 11.2784,24.5821333 11.5654,24.696 C11.5644667,24.7109333 11.5612,24.7249333 11.5612,24.7403333 L11.5612,39.6666667 L6.25053333,39.6666667 C5.86366667,39.6666667 5.55053333,39.9802667 5.55053333,40.3666667 C5.55053333,40.7530667 5.86366667,41.0666667 6.25053333,41.0666667 L18.2709333,41.0666667 C18.6573333,41.0666667 18.9709333,40.7530667 18.9709333,40.3666667 C18.9709333,39.9802667 18.6573333,39.6666667 18.2709333,39.6666667 L12.9607333,39.6666667 L12.9607333,24.7408 C12.9607333,24.7366 12.9598,24.7328667 12.9598,24.7291333 C13.2505333,24.6292667 13.5202667,24.4710667 13.7456667,24.2461333 L20.4003333,17.591 C21.5212667,18.3092 22.8508,18.7306 24.2811333,18.7306 C28.2641333,18.7306 31.4925333,15.5017333 31.4925333,11.5182667 C31.4925333,7.5348 28.2641333,4.30593333 24.2811333,4.30593333 L24.2811333,4.30593333 Z M24.2811333,17.0263333 C23.3249333,17.0263333 22.4247333,16.7808667 21.6407333,16.3501333 L22.6865333,15.3038667 C23.1774667,15.5110667 23.716,15.6258667 24.2811333,15.6258667 C26.5463333,15.6258667 28.3892,13.783 28.3892,11.5178 C28.3892,9.2526 26.5463333,7.40973333 24.2811333,7.40973333 C22.2548667,7.40973333 20.5706667,8.88533333 20.2365333,10.8178 L18.8220667,10.8178 C19.1674,8.11066667 21.4816,6.00973333 24.2811333,6.00973333 C27.3182,6.00973333 29.7892,8.48073333 29.7892,11.5178 C29.7892,14.5553333 27.3182,17.0263333 24.2811333,17.0263333 L24.2811333,17.0263333 Z" transform="translate(19.133 14.467)" stroke="none" class="main-fill"></path>
  </g></g><style>
          .main-fill {fill: #666666;}
          .main-stroke {stroke: #666666;}
          .secondary-fill {fill: #ffffff;}
          .secondary-stroke {stroke: #ffffff;}

          .main-fill--darken {fill: #404040;}
          .main-stroke--darken {stroke: #404040;}
          .secondary-fill--darken {fill: #d9d9d9;}
          .secondary-stroke--darken {stroke: #d9d9d9;}

          .main-fill--darkener {fill: #262626;}
          .main-stroke--darkener {stroke: #262626;}
          .secondary-fill--darkener {fill: #bfbfbf;}
          .secondary-stroke--darkener {stroke: #bfbfbf;}
        </style></svg>